<svg xmlns="http://www.w3.org/2000/svg" viewBox="0 0 64 64" role="img" aria-label="小基比可">
  <defs>
    <linearGradient id="sky" x1="9" y1="7" x2="56" y2="58" gradientUnits="userSpaceOnUse">
      <stop offset="0" stop-color="#ecfeff" />
      <stop offset=".55" stop-color="#bfeaf1" />
      <stop offset="1" stop-color="#5aa2b1" />
    </linearGradient>
    <linearGradient id="bird" x1="26" y1="11" x2="40" y2="54" gradientUnits="userSpaceOnUse">
      <stop offset="0" stop-color="#fffdf7" />
      <stop offset=".52" stop-color="#f7fbfa" />
      <stop offset="1" stop-color="#b8d9e5" />
    </linearGradient>
    <linearGradient id="coin" x1="10" y1="15" x2="24" y2="29" gradientUnits="userSpaceOnUse">
      <stop offset="0" stop-color="#fff4a3" />
      <stop offset=".55" stop-color="#f7c948" />
      <stop offset="1" stop-color="#d97706" />
    </linearGradient>
    <linearGradient id="wing" x1="39" y1="29" x2="53" y2="45" gradientUnits="userSpaceOnUse">
      <stop offset="0" stop-color="#e9fbff" />
      <stop offset="1" stop-color="#8fc6d4" />
    </linearGradient>
  </defs>
  <rect width="64" height="64" rx="15" fill="#0f766e" />
  <circle cx="34" cy="33" r="25" fill="url(#sky)" />
  <path d="M14 50c7-5 27-5 38 0" fill="none" stroke="#8b6f47" stroke-width="4.2" stroke-linecap="round" />
  <path d="M32 53c-6.6-1.8-10.6-7.7-10.6-17.2 0-12 6.4-22.6 15.1-22.6 8.3 0 14.4 8.9 14.4 21.4 0 10.5-4.2 17.1-11.6 18.7-1.8.4-5.3.3-7.3-.3Z" fill="url(#bird)" />
  <path d="M28.4 49.5c1.8 4.5 5.5 7.6 10.2 8.6" fill="none" stroke="#7daabd" stroke-width="3.4" stroke-linecap="round" />
  <path d="M36.4 51c.4 3.5 2.1 5.9 4.9 7.1" fill="none" stroke="#7daabd" stroke-width="3.2" stroke-linecap="round" />
  <circle cx="36.3" cy="24.7" r="2.2" fill="#17202a" />
  <path d="M26.3 27.1c-1.2-2.5.7-5 3.5-4.7 2 .2 4.1 2.2 5.8 4.6-3.3 1.9-6.2 2.2-9.3.1Z" fill="#f0b6ae" stroke="#d18b88" stroke-width="1.1" stroke-linejoin="round" />
  <circle cx="18" cy="21.8" r="6.6" fill="url(#coin)" stroke="#b45309" stroke-width="1.7" />
  <path d="M18 17.8v8M15.3 20.3h4.5a2 2 0 0 1 0 4h-4.5" fill="none" stroke="#8a3f09" stroke-width="1.4" stroke-linecap="round" />
  <path d="M25.2 27.2c-2.6-2-4.8-3.5-7.1-4.6" fill="none" stroke="#d18b88" stroke-width="1.4" stroke-linecap="round" />
  <path d="M43.5 34.3c4.2 2.5 6.9 6.2 7 10.3-4.4.3-9-1.8-12.4-6.6 1.4-1.5 3.1-2.7 5.4-3.7Z" fill="url(#wing)" stroke="#66a9b9" stroke-width="1.2" stroke-linejoin="round" />
  <circle cx="46.2" cy="37.9" r="2.6" fill="none" stroke="#0f766e" stroke-width="1.7" />
  <path d="M47.9 40.2l3.9 3.6" fill="none" stroke="#0f766e" stroke-width="1.7" stroke-linecap="round" />
  <path d="M26.4 50.6c0 2.7-1.2 4.1-3.5 4.1M41.5 51.3c0 2.4 1.2 3.7 3.5 3.7" fill="none" stroke="#d0a08d" stroke-width="2.2" stroke-linecap="round" />
</svg>
